<?xml version="1.0" encoding="UTF-8" standalone="no"?><svg xmlns="http://www.w3.org/2000/svg" xmlns:xlink="http://www.w3.org/1999/xlink" contentScriptType="application/ecmascript" contentStyleType="text/css" height="830px" preserveAspectRatio="none" style="width:829px;height:830px;" version="1.1" viewBox="0 0 829 830" width="829px" zoomAndPan="magnify"><defs><filter height="300%" id="f88ruwam3i84h" width="300%" x="-1" y="-1"><feGaussianBlur result="blurOut" stdDeviation="2.0"/><feColorMatrix in="blurOut" result="blurOut2" type="matrix" values="0 0 0 0 0 0 0 0 0 0 0 0 0 0 0 0 0 0 .4 0"/><feOffset dx="4.0" dy="4.0" in="blurOut2" result="blurOut3"/><feBlend in="SourceGraphic" in2="blurOut3" mode="normal"/></filter></defs><g><text fill="#888888" font-family="sans-serif" font-size="10" lengthAdjust="spacingAndGlyphs" textLength="135" x="682" y="9.2822">2017-09-06T09:03:24+0000</text><text fill="#000000" font-family="sans-serif" font-size="18" font-weight="bold" lengthAdjust="spacingAndGlyphs" textLength="182" x="317.5" y="28.3486">frontend @ buildo</text><text fill="#000000" font-family="sans-serif" font-size="18" lengthAdjust="spacingAndGlyphs" textLength="123" x="347" y="49.3018">dev challenge</text><!--cluster browser--><rect fill="#FFFFFF" filter="url(#f88ruwam3i84h)" height="658.5" style="stroke: #000000; stroke-width: 2.0;" width="727" x="56" y="78.0469"/><path d="M133,79.0469 L133,87.3438 L123,97.3438 L56,97.3438 " fill="none" style="stroke: #000000; stroke-width: 2.0;"/><text fill="#000000" font-family="sans-serif" font-size="14" font-weight="bold" lengthAdjust="spacingAndGlyphs" textLength="67" x="59" y="92.042">browser</text><!--cluster frontend--><rect fill="#FFFFFF" filter="url(#f88ruwam3i84h)" height="516.5" style="stroke: #000000; stroke-width: 2.0;" width="479" x="136" y="121.0469"/><path d="M215,122.0469 L215,130.3438 L205,140.3438 L136,140.3438 " fill="none" style="stroke: #000000; stroke-width: 2.0;"/><text fill="#000000" font-family="sans-serif" font-size="14" font-weight="bold" lengthAdjust="spacingAndGlyphs" textLength="69" x="139" y="135.042">frontend</text><!--cluster state--><rect fill="#FFFFFF" filter="url(#f88ruwam3i84h)" height="103" style="stroke: #000000; stroke-width: 2.0;" width="123" x="168" y="325.0469"/><path d="M218,326.0469 L218,334.3438 L208,344.3438 L168,344.3438 " fill="none" style="stroke: #000000; stroke-width: 2.0;"/><text fill="#000000" font-family="sans-serif" font-size="14" font-weight="bold" lengthAdjust="spacingAndGlyphs" textLength="40" x="171" y="339.042">state</text><!--cluster avenger--><rect fill="#FFFFFF" filter="url(#f88ruwam3i84h)" height="103" style="stroke: #000000; stroke-width: 2.0;" width="131" x="452" y="325.0469"/><path d="M527,326.0469 L527,334.3438 L517,344.3438 L452,344.3438 " fill="none" style="stroke: #000000; stroke-width: 2.0;"/><text fill="#000000" font-family="sans-serif" font-size="14" font-weight="bold" lengthAdjust="spacingAndGlyphs" textLength="65" x="455" y="339.042">avenger</text><!--entity URL--><rect fill="#FEFECE" filter="url(#f88ruwam3i84h)" height="36.2969" rx="35" ry="35" style="stroke: #000000; stroke-width: 1.5;" width="47" x="72.5" y="488.5469"/><text fill="#000000" font-family="sans-serif" font-size="14" lengthAdjust="spacingAndGlyphs" textLength="27" x="82.5" y="511.542">URL</text><!--entity DOM--><rect fill="#FEFECE" filter="url(#f88ruwam3i84h)" height="36.2969" rx="35" ry="35" style="stroke: #000000; stroke-width: 1.5;" width="54" x="109" y="684.5469"/><text fill="#000000" font-family="sans-serif" font-size="14" lengthAdjust="spacingAndGlyphs" textLength="34" x="119" y="707.542">DOM</text><!--entity BrowserStorage--><rect fill="#FEFECE" filter="url(#f88ruwam3i84h)" height="36.2969" rx="35" ry="35" style="stroke: #000000; stroke-width: 1.5;" width="135" x="631.5" y="488.5469"/><text fill="#000000" font-family="sans-serif" font-size="14" lengthAdjust="spacingAndGlyphs" textLength="115" x="641.5" y="511.542">Browser Storage</text><!--entity React--><rect fill="#FEFECE" filter="url(#f88ruwam3i84h)" height="36.2969" style="stroke: #A80036; stroke-width: 1.5;" width="60" x="216" y="585.5469"/><rect fill="#FEFECE" height="5" style="stroke: #A80036; stroke-width: 1.5;" width="10" x="211" y="590.5469"/><rect fill="#FEFECE" height="5" style="stroke: #A80036; stroke-width: 1.5;" width="10" x="211" y="611.8438"/><text fill="#000000" font-family="sans-serif" font-size="14" lengthAdjust="spacingAndGlyphs" textLength="40" x="226" y="608.542">React</text><!--entity Components--><rect fill="#FEFECE" filter="url(#f88ruwam3i84h)" height="36.2969" style="stroke: #A80036; stroke-width: 1.5;" width="110" x="315" y="368.0469"/><rect fill="#FEFECE" height="5" style="stroke: #A80036; stroke-width: 1.5;" width="10" x="310" y="373.0469"/><rect fill="#FEFECE" height="5" style="stroke: #A80036; stroke-width: 1.5;" width="10" x="310" y="394.3438"/><text fill="#000000" font-family="sans-serif" font-size="14" lengthAdjust="spacingAndGlyphs" textLength="90" x="325" y="391.042">Components</text><!--entity Containers--><rect fill="#FEFECE" filter="url(#f88ruwam3i84h)" height="36.2969" style="stroke: #A80036; stroke-width: 1.5;" width="95" x="304.5" y="156.0469"/><rect fill="#FEFECE" height="5" style="stroke: #A80036; stroke-width: 1.5;" width="10" x="299.5" y="161.0469"/><rect fill="#FEFECE" height="5" style="stroke: #A80036; stroke-width: 1.5;" width="10" x="299.5" y="182.3438"/><text fill="#000000" font-family="sans-serif" font-size="14" lengthAdjust="spacingAndGlyphs" textLength="75" x="314.5" y="179.042">Containers</text><!--entity MetarpheusHTTPAPI--><rect fill="#FEFECE" filter="url(#f88ruwam3i84h)" height="36.2969" style="stroke: #A80036; stroke-width: 1.5;" width="169" x="375.5" y="585.5469"/><rect fill="#FEFECE" height="5" style="stroke: #A80036; stroke-width: 1.5;" width="10" x="370.5" y="590.5469"/><rect fill="#FEFECE" height="5" style="stroke: #A80036; stroke-width: 1.5;" width="10" x="370.5" y="611.8438"/><text fill="#000000" font-family="sans-serif" font-size="14" lengthAdjust="spacingAndGlyphs" textLength="149" x="385.5" y="608.542">Metarpheus HTTP API</text><!--entity State--><rect fill="#FEFECE" filter="url(#f88ruwam3i84h)" height="36.2969" rx="35" ry="35" style="stroke: #000000; stroke-width: 1.5;" width="56" x="211" y="368.0469"/><text fill="#000000" font-family="sans-serif" font-size="14" lengthAdjust="spacingAndGlyphs" textLength="36" x="221" y="391.042">State</text><!--entity Cache--><rect fill="#FEFECE" filter="url(#f88ruwam3i84h)" height="36.2969" rx="35" ry="35" style="stroke: #000000; stroke-width: 1.5;" width="64" x="495" y="368.0469"/><text fill="#000000" font-family="sans-serif" font-size="14" lengthAdjust="spacingAndGlyphs" textLength="44" x="505" y="391.042">Cache</text><!--entity User--><ellipse cx="22" cy="354.5469" fill="#FEFECE" filter="url(#f88ruwam3i84h)" rx="8" ry="8" style="stroke: #A80036; stroke-width: 2.0;"/><path d="M22,362.5469 L22,389.5469 M9,370.5469 L35,370.5469 M22,389.5469 L9,404.5469 M22,389.5469 L35,404.5469 " fill="#FEFECE" filter="url(#f88ruwam3i84h)" style="stroke: #A80036; stroke-width: 2.0;"/><text fill="#000000" font-family="sans-serif" font-size="14" lengthAdjust="spacingAndGlyphs" textLength="32" x="6" y="424.542">User</text><!--entity Backend--><rect fill="#FEFECE" filter="url(#f88ruwam3i84h)" height="36.2969" style="stroke: #A80036; stroke-width: 1.5;" width="81" x="419.5" y="783.5469"/><rect fill="#FEFECE" height="5" style="stroke: #A80036; stroke-width: 1.5;" width="10" x="414.5" y="788.5469"/><rect fill="#FEFECE" height="5" style="stroke: #A80036; stroke-width: 1.5;" width="10" x="414.5" y="809.8438"/><text fill="#000000" font-family="sans-serif" font-size="14" lengthAdjust="spacingAndGlyphs" textLength="61" x="429.5" y="806.542">Backend</text><!--link React to DOM--><path d="M226.587,621.6649 C207.853,638.1859 179.464,663.2189 159.47,680.8509 " fill="none" id="React-DOM" style="stroke: #A80036; stroke-width: 1.0;"/><polygon fill="#A80036" points="155.589,684.2729,164.9848,681.32,159.339,680.9657,159.6933,675.32,155.589,684.2729" style="stroke: #A80036; stroke-width: 1.0;"/><!--link Components to React--><path d="M368.875,404.3899 C366.412,431.7819 358.699,485.9119 335,524.5469 C319.531,549.7659 293.304,571.2939 273.317,585.3029 " fill="none" id="Components-React" style="stroke: #A80036; stroke-width: 1.0;"/><path d="M344.7247,522.2167 A10,10 0 0 0 332.6698 514.8221" fill="#FFFFFF" style="stroke: #A80036; stroke-width: 1.5;"/><ellipse cx="335" cy="524.5469" fill="#FFFFFF" rx="6" ry="6" style="stroke: #A80036; stroke-width: 1.5;"/><!--link Containers to Components--><path d="M353.473,192.2319 C356.857,231.7089 365.153,328.4969 368.532,367.9189 " fill="none" id="Containers-Components" style="stroke: #A80036; stroke-width: 1.0;"/><text fill="#000000" font-family="sans-serif" font-size="13" lengthAdjust="spacingAndGlyphs" textLength="36" x="361" y="266.1138">props</text><path d="M367.4457,272.4469 A10,10 0 0 0 353.3553 273.6546" fill="#FFFFFF" style="stroke: #A80036; stroke-width: 1.5;"/><ellipse cx="361.0044" cy="280.096" fill="#FFFFFF" rx="6" ry="6" style="stroke: #A80036; stroke-width: 1.5;"/><!--link Containers to state--><path d="M322.555,192.1309 C286.827,214.4189 227.365,256.8019 195,309.0469 C192.7796,312.631 190.8184,316.4615 189.0861,320.4262 C188.653,321.4174 188.2343,322.417 187.8293,323.4232 C187.6269,323.9263 187.4279,324.431 187.2323,324.9372 " fill="none" id="Containers-state" style="stroke: #A80036; stroke-width: 1.0;"/><text fill="#000000" font-family="sans-serif" font-size="13" lengthAdjust="spacingAndGlyphs" textLength="51" x="242" y="266.1138">connect</text><path d="M267.4845,240.1528 A10,10 0 0 0 258.3142 229.3869" fill="#FFFFFF" style="stroke: #A80036; stroke-width: 1.5;"/><ellipse cx="257.5164" cy="239.355" fill="#FFFFFF" rx="6" ry="6" style="stroke: #A80036; stroke-width: 1.5;"/><!--link state to URL--><path d="M167.9879,398.9148 C167.9179,399.0184 167.8476,399.1225 167.7769,399.2272 C167.6356,399.4366 167.4927,399.6482 167.3484,399.862 C167.0598,400.2895 166.7653,400.7257 166.4652,401.1701 C165.8651,402.0591 165.2426,402.9812 164.5993,403.934 C163.3128,405.8396 161.9436,407.8677 160.5057,409.9977 C157.6298,414.2576 154.4789,418.9248 151.165,423.8335 C137.9095,443.4681 122.046,466.9659 110.74,483.7129 " fill="none" id="state-URL" style="stroke: #A80036; stroke-width: 1.0;"/><polygon fill="#A80036" points="107.81,488.0539,116.1604,482.8318,110.6072,483.9095,109.5295,478.3563,107.81,488.0539" style="stroke: #A80036; stroke-width: 1.0;"/><!--link Containers to avenger--><path d="M371.248,192.2969 C396.026,215.8649 438.024,260.7489 456,309.0469 C457.4286,312.8856 458.5699,316.9091 459.4725,321.0163 C459.6981,322.0431 459.9089,323.0752 460.1054,324.1109 C460.1546,324.3698 460.2028,324.6289 460.2502,324.8883 " fill="none" id="Containers-avenger" style="stroke: #A80036; stroke-width: 1.0;"/><text fill="#000000" font-family="sans-serif" font-size="13" lengthAdjust="spacingAndGlyphs" textLength="123" x="437" y="266.1138">queries/commands</text><path d="M417.3756,231.4705 A10,10 0 0 0 406.2471 240.1972" fill="#FFFFFF" style="stroke: #A80036; stroke-width: 1.5;"/><ellipse cx="416.1748" cy="241.3981" fill="#FFFFFF" rx="6" ry="6" style="stroke: #A80036; stroke-width: 1.5;"/><!--link avenger to MetarpheusHTTPAPI--><path d="M460,428.7534 C460,429.8594 460,430.9804 460,432.1157 C460,434.3862 460,436.7137 460,439.0911 C460,448.6007 460,458.9088 460,469.5658 C460,512.1936 460,560.4039 460,585.4229 " fill="none" id="avenger-MetarpheusHTTPAPI" style="stroke: #A80036; stroke-width: 1.0;"/><path d="M467.0711,527.0266 A10,10 0 0 0 452.9289 527.0266" fill="#FFFFFF" style="stroke: #A80036; stroke-width: 1.5;"/><ellipse cx="460" cy="534.0976" fill="#FFFFFF" rx="6" ry="6" style="stroke: #A80036; stroke-width: 1.5;"/><!--link avenger to BrowserStorage--><path d="M467.4924,428.2465 C467.5345,428.3393 467.5768,428.4319 467.6193,428.5245 C470.34,434.4471 474.0215,439.9189 479,444.0469 C496.092,458.2199 556.523,451.9119 578,457.5469 C605.347,464.7219 634.861,476.3469 657.895,486.3599 " fill="none" id="avenger-BrowserStorage" style="stroke: #A80036; stroke-width: 1.0;"/><polygon fill="#A80036" points="662.708,488.4699,656.0731,481.1913,658.1292,486.4612,652.8593,488.5173,662.708,488.4699" style="stroke: #A80036; stroke-width: 1.0;"/><!--link User to URL--><path d="M38.0569,412.7599 C51.3353,434.0229 69.9794,463.8789 82.4993,483.9279 " fill="none" id="User-URL" style="stroke: #A80036; stroke-width: 1.0;"/><polygon fill="#A80036" points="85.2299,488.2999,83.8553,478.5474,82.5814,484.059,77.0698,482.785,85.2299,488.2999" style="stroke: #A80036; stroke-width: 1.0;"/><!--link User to DOM--><path d="M29.5869,427.6469 C35.2838,455.3399 43.9864,492.6389 55,524.5469 C74.9677,582.3969 107.219,646.9739 124.382,679.8119 " fill="none" id="User-DOM" style="stroke: #A80036; stroke-width: 1.0;"/><polygon fill="#A80036" points="126.802,684.4219,126.16,674.594,124.4778,679.9949,119.0769,678.3127,126.802,684.4219" style="stroke: #A80036; stroke-width: 1.0;"/><!--link MetarpheusHTTPAPI to Backend--><path d="M460,621.5979 C460,658.6659 460,746.237 460,783.3959 " fill="none" id="MetarpheusHTTPAPI-Backend" style="stroke: #A80036; stroke-width: 1.0;"/><text fill="#000000" font-family="sans-serif" font-size="13" lengthAdjust="spacingAndGlyphs" textLength="20" x="461" y="707.1138">API</text><path d="M467.0711,695.3917 A10,10 0 0 0 452.9289 695.3917" fill="#FFFFFF" style="stroke: #A80036; stroke-width: 1.5;"/><ellipse cx="460" cy="702.4628" fill="#FFFFFF" rx="6" ry="6" style="stroke: #A80036; stroke-width: 1.5;"/><!--
@startuml
header 2017-09-06T09:03:24+0000

title
**frontend @ buildo**
dev challenge
end title

actor User

[Backend]

frame browser {

  storage URL as URL
  storage DOM as DOM
  storage "Browser Storage" as BrowserStorage

  frame frontend {
    [React] as React
    [Components] as Components
    [Containers] as Containers
    frame state {
      storage State as State
    }
    frame avenger {
      storage Cache as Cache
    }
    [Metarpheus HTTP API] as MetarpheusHTTPAPI
     

    React - -> DOM
    Components - -(0- React
    Containers - -(0- Components : props
    Containers - -(0- state : connect
    state - -> URL
    Containers - -(0- avenger : queries/commands
    avenger - -(0- MetarpheusHTTPAPI
    avenger - -> BrowserStorage
  }
}

User - -> URL
User - -> DOM
MetarpheusHTTPAPI - -(0- Backend : API
@enduml

PlantUML version 1.2017.16(Sun Sep 03 10:53:37 UTC 2017)
(GPL source distribution)
Java Runtime: Java(TM) SE Runtime Environment
JVM: Java HotSpot(TM) 64-Bit Server VM
Java Version: 1.7.0_25-b15
Operating System: Linux
Default Encoding: UTF-8
Language: en
Country: US
--></g></svg>
