<?xml version="1.0" encoding="UTF-8" standalone="no"?><svg xmlns="http://www.w3.org/2000/svg" xmlns:xlink="http://www.w3.org/1999/xlink" contentScriptType="application/ecmascript" contentStyleType="text/css" height="798px" preserveAspectRatio="none" style="width:794px;height:798px;" version="1.1" viewBox="0 0 794 798" width="794px" zoomAndPan="magnify"><defs><filter height="300%" id="f1wczkrxqjubsb" width="300%" x="-1" y="-1"><feGaussianBlur result="blurOut" stdDeviation="2.0"/><feColorMatrix in="blurOut" result="blurOut2" type="matrix" values="0 0 0 0 0 0 0 0 0 0 0 0 0 0 0 0 0 0 .4 0"/><feOffset dx="4.0" dy="4.0" in="blurOut2" result="blurOut3"/><feBlend in="SourceGraphic" in2="blurOut3" mode="normal"/></filter></defs><g><text fill="#000000" font-family="sans-serif" font-size="18" font-weight="bold" lengthAdjust="spacingAndGlyphs" textLength="182" x="317.5" y="16.708">frontend @ buildo</text><!--cluster browser--><rect fill="#FFFFFF" filter="url(#f1wczkrxqjubsb)" height="658.5" style="stroke: #000000; stroke-width: 2.0;" width="727" x="56" y="45.4531"/><path d="M133,46.4531 L133,54.75 L123,64.75 L56,64.75 " fill="none" style="stroke: #000000; stroke-width: 2.0;"/><text fill="#000000" font-family="sans-serif" font-size="14" font-weight="bold" lengthAdjust="spacingAndGlyphs" textLength="67" x="59" y="59.4482">browser</text><!--cluster frontend--><rect fill="#FFFFFF" filter="url(#f1wczkrxqjubsb)" height="516.5" style="stroke: #000000; stroke-width: 2.0;" width="479" x="136" y="88.4531"/><path d="M215,89.4531 L215,97.75 L205,107.75 L136,107.75 " fill="none" style="stroke: #000000; stroke-width: 2.0;"/><text fill="#000000" font-family="sans-serif" font-size="14" font-weight="bold" lengthAdjust="spacingAndGlyphs" textLength="69" x="139" y="102.4482">frontend</text><!--cluster state--><rect fill="#FFFFFF" filter="url(#f1wczkrxqjubsb)" height="103" style="stroke: #000000; stroke-width: 2.0;" width="123" x="168" y="292.4531"/><path d="M218,293.4531 L218,301.75 L208,311.75 L168,311.75 " fill="none" style="stroke: #000000; stroke-width: 2.0;"/><text fill="#000000" font-family="sans-serif" font-size="14" font-weight="bold" lengthAdjust="spacingAndGlyphs" textLength="40" x="171" y="306.4482">state</text><!--cluster avenger--><rect fill="#FFFFFF" filter="url(#f1wczkrxqjubsb)" height="103" style="stroke: #000000; stroke-width: 2.0;" width="131" x="452" y="292.4531"/><path d="M527,293.4531 L527,301.75 L517,311.75 L452,311.75 " fill="none" style="stroke: #000000; stroke-width: 2.0;"/><text fill="#000000" font-family="sans-serif" font-size="14" font-weight="bold" lengthAdjust="spacingAndGlyphs" textLength="65" x="455" y="306.4482">avenger</text><!--entity URL--><rect fill="#FEFECE" filter="url(#f1wczkrxqjubsb)" height="36.2969" rx="35" ry="35" style="stroke: #000000; stroke-width: 1.5;" width="47" x="72.5" y="455.9531"/><text fill="#000000" font-family="sans-serif" font-size="14" lengthAdjust="spacingAndGlyphs" textLength="27" x="82.5" y="478.9482">URL</text><!--entity DOM--><rect fill="#FEFECE" filter="url(#f1wczkrxqjubsb)" height="36.2969" rx="35" ry="35" style="stroke: #000000; stroke-width: 1.5;" width="54" x="109" y="651.9531"/><text fill="#000000" font-family="sans-serif" font-size="14" lengthAdjust="spacingAndGlyphs" textLength="34" x="119" y="674.9482">DOM</text><!--entity BrowserStorage--><rect fill="#FEFECE" filter="url(#f1wczkrxqjubsb)" height="36.2969" rx="35" ry="35" style="stroke: #000000; stroke-width: 1.5;" width="135" x="631.5" y="455.9531"/><text fill="#000000" font-family="sans-serif" font-size="14" lengthAdjust="spacingAndGlyphs" textLength="115" x="641.5" y="478.9482">Browser Storage</text><!--entity React--><rect fill="#FEFECE" filter="url(#f1wczkrxqjubsb)" height="36.2969" style="stroke: #A80036; stroke-width: 1.5;" width="60" x="216" y="552.9531"/><rect fill="#FEFECE" height="5" style="stroke: #A80036; stroke-width: 1.5;" width="10" x="211" y="557.9531"/><rect fill="#FEFECE" height="5" style="stroke: #A80036; stroke-width: 1.5;" width="10" x="211" y="579.25"/><text fill="#000000" font-family="sans-serif" font-size="14" lengthAdjust="spacingAndGlyphs" textLength="40" x="226" y="575.9482">React</text><!--entity Components--><rect fill="#FEFECE" filter="url(#f1wczkrxqjubsb)" height="36.2969" style="stroke: #A80036; stroke-width: 1.5;" width="110" x="315" y="335.4531"/><rect fill="#FEFECE" height="5" style="stroke: #A80036; stroke-width: 1.5;" width="10" x="310" y="340.4531"/><rect fill="#FEFECE" height="5" style="stroke: #A80036; stroke-width: 1.5;" width="10" x="310" y="361.75"/><text fill="#000000" font-family="sans-serif" font-size="14" lengthAdjust="spacingAndGlyphs" textLength="90" x="325" y="358.4482">Components</text><!--entity Containers--><rect fill="#FEFECE" filter="url(#f1wczkrxqjubsb)" height="36.2969" style="stroke: #A80036; stroke-width: 1.5;" width="95" x="304.5" y="123.4531"/><rect fill="#FEFECE" height="5" style="stroke: #A80036; stroke-width: 1.5;" width="10" x="299.5" y="128.4531"/><rect fill="#FEFECE" height="5" style="stroke: #A80036; stroke-width: 1.5;" width="10" x="299.5" y="149.75"/><text fill="#000000" font-family="sans-serif" font-size="14" lengthAdjust="spacingAndGlyphs" textLength="75" x="314.5" y="146.4482">Containers</text><!--entity MetarpheusHTTPAPI--><rect fill="#FEFECE" filter="url(#f1wczkrxqjubsb)" height="36.2969" style="stroke: #A80036; stroke-width: 1.5;" width="169" x="375.5" y="552.9531"/><rect fill="#FEFECE" height="5" style="stroke: #A80036; stroke-width: 1.5;" width="10" x="370.5" y="557.9531"/><rect fill="#FEFECE" height="5" style="stroke: #A80036; stroke-width: 1.5;" width="10" x="370.5" y="579.25"/><text fill="#000000" font-family="sans-serif" font-size="14" lengthAdjust="spacingAndGlyphs" textLength="149" x="385.5" y="575.9482">Metarpheus HTTP API</text><!--entity State--><rect fill="#FEFECE" filter="url(#f1wczkrxqjubsb)" height="36.2969" rx="35" ry="35" style="stroke: #000000; stroke-width: 1.5;" width="56" x="211" y="335.4531"/><text fill="#000000" font-family="sans-serif" font-size="14" lengthAdjust="spacingAndGlyphs" textLength="36" x="221" y="358.4482">State</text><!--entity Cache--><rect fill="#FEFECE" filter="url(#f1wczkrxqjubsb)" height="36.2969" rx="35" ry="35" style="stroke: #000000; stroke-width: 1.5;" width="64" x="495" y="335.4531"/><text fill="#000000" font-family="sans-serif" font-size="14" lengthAdjust="spacingAndGlyphs" textLength="44" x="505" y="358.4482">Cache</text><!--entity User--><ellipse cx="22" cy="321.9531" fill="#FEFECE" filter="url(#f1wczkrxqjubsb)" rx="8" ry="8" style="stroke: #A80036; stroke-width: 2.0;"/><path d="M22,329.9531 L22,356.9531 M9,337.9531 L35,337.9531 M22,356.9531 L9,371.9531 M22,356.9531 L35,371.9531 " fill="#FEFECE" filter="url(#f1wczkrxqjubsb)" style="stroke: #A80036; stroke-width: 2.0;"/><text fill="#000000" font-family="sans-serif" font-size="14" lengthAdjust="spacingAndGlyphs" textLength="32" x="6" y="391.9482">User</text><!--entity Backend--><rect fill="#FEFECE" filter="url(#f1wczkrxqjubsb)" height="36.2969" style="stroke: #A80036; stroke-width: 1.5;" width="81" x="419.5" y="750.9531"/><rect fill="#FEFECE" height="5" style="stroke: #A80036; stroke-width: 1.5;" width="10" x="414.5" y="755.9531"/><rect fill="#FEFECE" height="5" style="stroke: #A80036; stroke-width: 1.5;" width="10" x="414.5" y="777.25"/><text fill="#000000" font-family="sans-serif" font-size="14" lengthAdjust="spacingAndGlyphs" textLength="61" x="429.5" y="773.9482">Backend</text><!--link React to DOM--><path d="M226.587,589.0711 C207.853,605.5921 179.464,630.6251 159.47,648.2571 " fill="none" id="React-DOM" style="stroke: #A80036; stroke-width: 1.0;"/><polygon fill="#A80036" points="155.589,651.6791,164.9848,648.7262,159.339,648.372,159.6933,642.7262,155.589,651.6791" style="stroke: #A80036; stroke-width: 1.0;"/><!--link Components to React--><path d="M368.875,371.7961 C366.412,399.1881 358.699,453.3181 335,491.9531 C319.531,517.1721 293.304,538.7001 273.317,552.7091 " fill="none" id="Components-React" style="stroke: #A80036; stroke-width: 1.0;"/><path d="M344.7247,489.623 A10,10 0 0 0 332.6698 482.2284" fill="#FFFFFF" style="stroke: #A80036; stroke-width: 1.5;"/><ellipse cx="335" cy="491.9531" fill="#FFFFFF" rx="6" ry="6" style="stroke: #A80036; stroke-width: 1.5;"/><!--link Containers to Components--><path d="M353.473,159.6381 C356.857,199.1151 365.153,295.9031 368.532,335.3251 " fill="none" id="Containers-Components" style="stroke: #A80036; stroke-width: 1.0;"/><text fill="#000000" font-family="sans-serif" font-size="13" lengthAdjust="spacingAndGlyphs" textLength="36" x="361" y="233.52">props</text><path d="M367.4457,239.8531 A10,10 0 0 0 353.3553 241.0609" fill="#FFFFFF" style="stroke: #A80036; stroke-width: 1.5;"/><ellipse cx="361.0044" cy="247.5023" fill="#FFFFFF" rx="6" ry="6" style="stroke: #A80036; stroke-width: 1.5;"/><!--link Containers to state--><path d="M322.555,159.5371 C286.827,181.8251 227.365,224.2081 195,276.4531 C192.7796,280.0373 190.8184,283.8678 189.0861,287.8325 C188.653,288.8237 188.2343,289.8232 187.8293,290.8294 C187.6269,291.3325 187.4279,291.8373 187.2323,292.3435 " fill="none" id="Containers-state" style="stroke: #A80036; stroke-width: 1.0;"/><text fill="#000000" font-family="sans-serif" font-size="13" lengthAdjust="spacingAndGlyphs" textLength="51" x="242" y="233.52">connect</text><path d="M267.4845,207.5591 A10,10 0 0 0 258.3142 196.7931" fill="#FFFFFF" style="stroke: #A80036; stroke-width: 1.5;"/><ellipse cx="257.5164" cy="206.7612" fill="#FFFFFF" rx="6" ry="6" style="stroke: #A80036; stroke-width: 1.5;"/><!--link state to URL--><path d="M167.9879,366.321 C167.9179,366.4246 167.8476,366.5288 167.7769,366.6335 C167.6356,366.8429 167.4927,367.0545 167.3484,367.2682 C167.0598,367.6958 166.7653,368.1319 166.4652,368.5764 C165.8651,369.4653 165.2426,370.3875 164.5993,371.3403 C163.3128,373.2459 161.9436,375.274 160.5057,377.404 C157.6298,381.6639 154.4789,386.3311 151.165,391.2397 C137.9095,410.8744 122.046,434.3721 110.74,451.1191 " fill="none" id="state-URL" style="stroke: #A80036; stroke-width: 1.0;"/><polygon fill="#A80036" points="107.81,455.4601,116.1604,450.238,110.6072,451.3158,109.5295,445.7625,107.81,455.4601" style="stroke: #A80036; stroke-width: 1.0;"/><!--link Containers to avenger--><path d="M371.248,159.7031 C396.026,183.2711 438.024,228.1551 456,276.4531 C457.4286,280.2919 458.5699,284.3154 459.4725,288.4226 C459.6981,289.4494 459.9089,290.4814 460.1054,291.5171 C460.1546,291.776 460.2028,292.0352 460.2502,292.2945 " fill="none" id="Containers-avenger" style="stroke: #A80036; stroke-width: 1.0;"/><text fill="#000000" font-family="sans-serif" font-size="13" lengthAdjust="spacingAndGlyphs" textLength="123" x="437" y="233.52">queries/commands</text><path d="M417.3756,198.8767 A10,10 0 0 0 406.2471 207.6035" fill="#FFFFFF" style="stroke: #A80036; stroke-width: 1.5;"/><ellipse cx="416.1748" cy="208.8044" fill="#FFFFFF" rx="6" ry="6" style="stroke: #A80036; stroke-width: 1.5;"/><!--link avenger to MetarpheusHTTPAPI--><path d="M460,396.1597 C460,397.2656 460,398.3866 460,399.5219 C460,401.7925 460,404.12 460,406.4974 C460,416.007 460,426.315 460,436.972 C460,479.5999 460,527.8101 460,552.8291 " fill="none" id="avenger-MetarpheusHTTPAPI" style="stroke: #A80036; stroke-width: 1.0;"/><path d="M467.0711,494.4328 A10,10 0 0 0 452.9289 494.4328" fill="#FFFFFF" style="stroke: #A80036; stroke-width: 1.5;"/><ellipse cx="460" cy="501.5039" fill="#FFFFFF" rx="6" ry="6" style="stroke: #A80036; stroke-width: 1.5;"/><!--link avenger to BrowserStorage--><path d="M467.4924,395.6528 C467.5345,395.7455 467.5768,395.8382 467.6193,395.9307 C470.34,401.8533 474.0215,407.3251 479,411.4531 C496.092,425.6261 556.523,419.3181 578,424.9531 C605.347,432.1281 634.861,443.7531 657.895,453.7661 " fill="none" id="avenger-BrowserStorage" style="stroke: #A80036; stroke-width: 1.0;"/><polygon fill="#A80036" points="662.708,455.8761,656.0731,448.5975,658.1292,453.8675,652.8593,455.9236,662.708,455.8761" style="stroke: #A80036; stroke-width: 1.0;"/><!--link User to URL--><path d="M38.0569,380.1661 C51.3353,401.4291 69.9794,431.2851 82.4993,451.3341 " fill="none" id="User-URL" style="stroke: #A80036; stroke-width: 1.0;"/><polygon fill="#A80036" points="85.2299,455.7061,83.8553,445.9537,82.5814,451.4652,77.0698,450.1913,85.2299,455.7061" style="stroke: #A80036; stroke-width: 1.0;"/><!--link User to DOM--><path d="M29.5869,395.0531 C35.2838,422.7461 43.9864,460.0451 55,491.9531 C74.9677,549.8031 107.219,614.3801 124.382,647.2181 " fill="none" id="User-DOM" style="stroke: #A80036; stroke-width: 1.0;"/><polygon fill="#A80036" points="126.802,651.8281,126.16,642.0002,124.4778,647.4012,119.0769,645.7189,126.802,651.8281" style="stroke: #A80036; stroke-width: 1.0;"/><!--link MetarpheusHTTPAPI to Backend--><path d="M460,589.0041 C460,626.0721 460,713.6432 460,750.8021 " fill="none" id="MetarpheusHTTPAPI-Backend" style="stroke: #A80036; stroke-width: 1.0;"/><text fill="#000000" font-family="sans-serif" font-size="13" lengthAdjust="spacingAndGlyphs" textLength="20" x="461" y="674.52">API</text><path d="M467.0711,662.798 A10,10 0 0 0 452.9289 662.798" fill="#FFFFFF" style="stroke: #A80036; stroke-width: 1.5;"/><ellipse cx="460" cy="669.869" fill="#FFFFFF" rx="6" ry="6" style="stroke: #A80036; stroke-width: 1.5;"/><!--
@startuml
title
**frontend @ buildo**
end title

actor User

[Backend]

frame browser {

  storage URL as URL
  storage DOM as DOM
  storage "Browser Storage" as BrowserStorage

  frame frontend {
    [React] as React
    [Components] as Components
    [Containers] as Containers
    frame state {
      storage State as State
    }
    frame avenger {
      storage Cache as Cache
    }
    [Metarpheus HTTP API] as MetarpheusHTTPAPI
     

    React - -> DOM
    Components - -(0- React
    Containers - -(0- Components : props
    Containers - -(0- state : connect
    state - -> URL
    Containers - -(0- avenger : queries/commands
    avenger - -(0- MetarpheusHTTPAPI
    avenger - -> BrowserStorage
  }
}

User - -> URL
User - -> DOM
MetarpheusHTTPAPI - -(0- Backend : API
@enduml

PlantUML version 1.2017.18(Fri Oct 06 16:56:32 UTC 2017)
(GPL source distribution)
Java Runtime: Java(TM) SE Runtime Environment
JVM: Java HotSpot(TM) 64-Bit Server VM
Java Version: 1.7.0_25-b15
Operating System: Linux
Default Encoding: UTF-8
Language: en
Country: US
--></g></svg>